<?xml version="1.0" encoding="utf-8" standalone="no"?>
<!DOCTYPE svg PUBLIC "-//W3C//DTD SVG 1.1//EN"
  "http://www.w3.org/Graphics/SVG/1.1/DTD/svg11.dtd">
<svg xmlns:xlink="http://www.w3.org/1999/xlink" width="516.111094pt" height="328.624687pt" viewBox="0 0 516.111094 328.624687" xmlns="http://www.w3.org/2000/svg" version="1.1">
 <metadata>
  <rdf:RDF xmlns:dc="http://purl.org/dc/elements/1.1/" xmlns:cc="http://creativecommons.org/ns#" xmlns:rdf="http://www.w3.org/1999/02/22-rdf-syntax-ns#">
   <cc:Work>
    <dc:type rdf:resource="http://purl.org/dc/dcmitype/StillImage"/>
    <dc:date>2025-11-24T06:08:45.593079</dc:date>
    <dc:format>image/svg+xml</dc:format>
    <dc:creator>
     <cc:Agent>
      <dc:title>Matplotlib v3.10.7, https://matplotlib.org/</dc:title>
     </cc:Agent>
    </dc:creator>
   </cc:Work>
  </rdf:RDF>
 </metadata>
 <defs>
  <style type="text/css">*{stroke-linejoin: round; stroke-linecap: butt}</style>
 </defs>
 <g id="figure_1">
  <g id="patch_1">
   <path d="M 0 328.624687 
L 516.111094 328.624687 
L 516.111094 0 
L 0 0 
z
" style="fill: #f9f4f5"/>
  </g>
  <g id="axes_1">
   <g id="patch_2">
    <path d="M 50.833125 284.4 
L 497.233125 284.4 
L 497.233125 7.2 
L 50.833125 7.2 
z
" style="fill: #f9f4f5"/>
   </g>
   <g id="FillBetweenPolyCollection_1">
    <defs>
     <path id="m4f5fc23895" d="M 140.113125 -321.424688 
L 140.113125 -44.224688 
L 497.233125 -44.224688 
L 497.233125 -321.424688 
L 497.233125 -321.424688 
L 140.113125 -321.424688 
z
"/>
    </defs>
    <g clip-path="url(#p67e05bb9b5)">
     <use xlink:href="#m4f5fc23895" x="0" y="328.624687" style="fill-opacity: 0.05"/>
    </g>
   </g>
   <g id="line2d_1">
    <path d="M 51.247386 231.540701 
L 66.127386 228.460999 
L 81.007386 230.179384 
L 95.887386 230.603401 
L 110.767386 230.692667 
L 125.647386 230.023167 
L 140.527386 231.429118 
L 155.407386 230.3356 
L 170.287386 231.853135 
L 185.167386 227.947715 
L 200.047386 231.607651 
L 214.927386 231.830818 
L 229.807386 230.625717 
L 244.687386 230.982784 
L 259.567386 230.112434 
L 274.447386 231.161318 
L 289.327386 231.674601 
L 304.207386 231.540701 
L 319.087386 232.678852 
L 333.967386 229.86695 
L 348.847386 232.544952 
L 363.727386 230.00085 
L 378.607386 231.674601 
L 393.487386 231.875452 
L 408.367386 232.165569 
L 423.247386 230.692667 
L 438.127386 229.375983 
L 453.007386 229.509883 
L 467.887386 230.00085 
L 482.767386 233.169819 
" clip-path="url(#p67e05bb9b5)" style="fill: none; stroke: #000000; stroke-width: 1.5; stroke-linecap: square"/>
   </g>
   <g id="matplotlib.axis_1">
    <g id="xtick_1">
     <g id="line2d_2">
      <defs>
       <path id="mbe62f4ddd1" d="M 0 0 
L 0 3.5 
" style="stroke: #000000; stroke-width: 0.8"/>
      </defs>
      <g>
       <use xlink:href="#mbe62f4ddd1" x="50.833125" y="284.4" style="stroke: #000000; stroke-width: 0.8"/>
      </g>
     </g>
     <g id="text_1">
      <!-- −60 -->
      <g transform="translate(38.959375 301.442813) scale(0.14 -0.14)">
       <defs>
        <path id="Helvetica-2212" d="M 3547 1894 
L 3547 1369 
L 288 1369 
L 288 1894 
L 3547 1894 
z
" transform="scale(0.015625)"/>
        <path id="Helvetica-36" d="M 1872 4494 
Q 2622 4494 2917 4105 
Q 3213 3716 3213 3303 
L 2656 3303 
Q 2606 3569 2497 3719 
Q 2294 4000 1881 4000 
Q 1409 4000 1131 3564 
Q 853 3128 822 2316 
Q 1016 2600 1309 2741 
Q 1578 2866 1909 2866 
Q 2472 2866 2890 2506 
Q 3309 2147 3309 1434 
Q 3309 825 2912 354 
Q 2516 -116 1781 -116 
Q 1153 -116 697 361 
Q 241 838 241 1966 
Q 241 2800 444 3381 
Q 834 4494 1872 4494 
z
M 1831 384 
Q 2275 384 2495 682 
Q 2716 981 2716 1388 
Q 2716 1731 2519 2042 
Q 2322 2353 1803 2353 
Q 1441 2353 1167 2112 
Q 894 1872 894 1388 
Q 894 963 1142 673 
Q 1391 384 1831 384 
z
" transform="scale(0.015625)"/>
        <path id="Helvetica-30" d="M 1731 4475 
Q 2600 4475 2988 3759 
Q 3288 3206 3288 2244 
Q 3288 1331 3016 734 
Q 2622 -122 1728 -122 
Q 922 -122 528 578 
Q 200 1163 200 2147 
Q 200 2909 397 3456 
Q 766 4475 1731 4475 
z
M 1725 391 
Q 2163 391 2422 778 
Q 2681 1166 2681 2222 
Q 2681 2984 2493 3476 
Q 2306 3969 1766 3969 
Q 1269 3969 1039 3501 
Q 809 3034 809 2125 
Q 809 1441 956 1025 
Q 1181 391 1725 391 
z
" transform="scale(0.015625)"/>
       </defs>
       <use xlink:href="#Helvetica-2212"/>
       <use xlink:href="#Helvetica-36" transform="translate(58.398438 0)"/>
       <use xlink:href="#Helvetica-30" transform="translate(114.013672 0)"/>
      </g>
     </g>
    </g>
    <g id="xtick_2">
     <g id="line2d_3">
      <g>
       <use xlink:href="#mbe62f4ddd1" x="140.113125" y="284.4" style="stroke: #000000; stroke-width: 0.8"/>
      </g>
     </g>
     <g id="text_2">
      <!-- 0 -->
      <g transform="translate(136.220469 301.442813) scale(0.14 -0.14)">
       <use xlink:href="#Helvetica-30"/>
      </g>
     </g>
    </g>
    <g id="xtick_3">
     <g id="line2d_4">
      <g>
       <use xlink:href="#mbe62f4ddd1" x="229.393125" y="284.4" style="stroke: #000000; stroke-width: 0.8"/>
      </g>
     </g>
     <g id="text_3">
      <!-- 60 -->
      <g transform="translate(221.607813 301.442813) scale(0.14 -0.14)">
       <use xlink:href="#Helvetica-36"/>
       <use xlink:href="#Helvetica-30" transform="translate(55.615234 0)"/>
      </g>
     </g>
    </g>
    <g id="xtick_4">
     <g id="line2d_5">
      <g>
       <use xlink:href="#mbe62f4ddd1" x="318.673125" y="284.4" style="stroke: #000000; stroke-width: 0.8"/>
      </g>
     </g>
     <g id="text_4">
      <!-- 120 -->
      <g transform="translate(306.995156 301.442813) scale(0.14 -0.14)">
       <defs>
        <path id="Helvetica-31" d="M 613 3169 
L 613 3600 
Q 1222 3659 1462 3798 
Q 1703 3938 1822 4456 
L 2266 4456 
L 2266 0 
L 1666 0 
L 1666 3169 
L 613 3169 
z
" transform="scale(0.015625)"/>
        <path id="Helvetica-32" d="M 200 0 
Q 231 578 439 1006 
Q 647 1434 1250 1784 
L 1850 2131 
Q 2253 2366 2416 2531 
Q 2672 2791 2672 3125 
Q 2672 3516 2437 3745 
Q 2203 3975 1813 3975 
Q 1234 3975 1013 3538 
Q 894 3303 881 2888 
L 309 2888 
Q 319 3472 525 3841 
Q 891 4491 1816 4491 
Q 2584 4491 2939 4075 
Q 3294 3659 3294 3150 
Q 3294 2613 2916 2231 
Q 2697 2009 2131 1694 
L 1703 1456 
Q 1397 1288 1222 1134 
Q 909 863 828 531 
L 3272 531 
L 3272 0 
L 200 0 
z
" transform="scale(0.015625)"/>
       </defs>
       <use xlink:href="#Helvetica-31"/>
       <use xlink:href="#Helvetica-32" transform="translate(55.615234 0)"/>
       <use xlink:href="#Helvetica-30" transform="translate(111.230469 0)"/>
      </g>
     </g>
    </g>
    <g id="xtick_5">
     <g id="line2d_6">
      <g>
       <use xlink:href="#mbe62f4ddd1" x="407.953125" y="284.4" style="stroke: #000000; stroke-width: 0.8"/>
      </g>
     </g>
     <g id="text_5">
      <!-- 180 -->
      <g transform="translate(396.275156 301.442813) scale(0.14 -0.14)">
       <defs>
        <path id="Helvetica-38" d="M 1741 2600 
Q 2113 2600 2322 2808 
Q 2531 3016 2531 3303 
Q 2531 3553 2331 3762 
Q 2131 3972 1722 3972 
Q 1316 3972 1134 3762 
Q 953 3553 953 3272 
Q 953 2956 1187 2778 
Q 1422 2600 1741 2600 
z
M 1775 384 
Q 2166 384 2423 595 
Q 2681 806 2681 1225 
Q 2681 1659 2415 1884 
Q 2150 2109 1734 2109 
Q 1331 2109 1076 1879 
Q 822 1650 822 1244 
Q 822 894 1055 639 
Q 1288 384 1775 384 
z
M 975 2384 
Q 741 2484 609 2619 
Q 363 2869 363 3269 
Q 363 3769 725 4128 
Q 1088 4488 1753 4488 
Q 2397 4488 2762 4148 
Q 3128 3809 3128 3356 
Q 3128 2938 2916 2678 
Q 2797 2531 2547 2391 
Q 2825 2263 2984 2097 
Q 3281 1784 3281 1284 
Q 3281 694 2884 283 
Q 2488 -128 1763 -128 
Q 1109 -128 657 226 
Q 206 581 206 1256 
Q 206 1653 400 1942 
Q 594 2231 975 2384 
z
" transform="scale(0.015625)"/>
       </defs>
       <use xlink:href="#Helvetica-31"/>
       <use xlink:href="#Helvetica-38" transform="translate(55.615234 0)"/>
       <use xlink:href="#Helvetica-30" transform="translate(111.230469 0)"/>
      </g>
     </g>
    </g>
    <g id="xtick_6">
     <g id="line2d_7">
      <g>
       <use xlink:href="#mbe62f4ddd1" x="497.233125" y="284.4" style="stroke: #000000; stroke-width: 0.8"/>
      </g>
     </g>
     <g id="text_6">
      <!-- 240 -->
      <g transform="translate(485.555156 301.442813) scale(0.14 -0.14)">
       <defs>
        <path id="Helvetica-34" d="M 2116 1584 
L 2116 3613 
L 681 1584 
L 2116 1584 
z
M 2125 0 
L 2125 1094 
L 163 1094 
L 163 1644 
L 2213 4488 
L 2688 4488 
L 2688 1584 
L 3347 1584 
L 3347 1094 
L 2688 1094 
L 2688 0 
L 2125 0 
z
" transform="scale(0.015625)"/>
       </defs>
       <use xlink:href="#Helvetica-32"/>
       <use xlink:href="#Helvetica-34" transform="translate(55.615234 0)"/>
       <use xlink:href="#Helvetica-30" transform="translate(111.230469 0)"/>
      </g>
     </g>
    </g>
    <g id="text_7">
     <!-- Time (s) -->
     <g transform="translate(248.372656 318.506562) scale(0.14 -0.14)">
      <defs>
       <path id="Helvetica-54" d="M 3828 4591 
L 3828 4044 
L 2281 4044 
L 2281 0 
L 1650 0 
L 1650 4044 
L 103 4044 
L 103 4591 
L 3828 4591 
z
" transform="scale(0.015625)"/>
       <path id="Helvetica-69" d="M 413 3331 
L 984 3331 
L 984 0 
L 413 0 
L 413 3331 
z
M 413 4591 
L 984 4591 
L 984 3953 
L 413 3953 
L 413 4591 
z
" transform="scale(0.015625)"/>
       <path id="Helvetica-6d" d="M 413 3347 
L 969 3347 
L 969 2872 
Q 1169 3119 1331 3231 
Q 1609 3422 1963 3422 
Q 2363 3422 2606 3225 
Q 2744 3113 2856 2894 
Q 3044 3163 3297 3292 
Q 3550 3422 3866 3422 
Q 4541 3422 4784 2934 
Q 4916 2672 4916 2228 
L 4916 0 
L 4331 0 
L 4331 2325 
Q 4331 2659 4164 2784 
Q 3997 2909 3756 2909 
Q 3425 2909 3186 2687 
Q 2947 2466 2947 1947 
L 2947 0 
L 2375 0 
L 2375 2184 
Q 2375 2525 2294 2681 
Q 2166 2916 1816 2916 
Q 1497 2916 1236 2669 
Q 975 2422 975 1775 
L 975 0 
L 413 0 
L 413 3347 
z
" transform="scale(0.015625)"/>
       <path id="Helvetica-65" d="M 1806 3422 
Q 2163 3422 2497 3255 
Q 2831 3088 3006 2822 
Q 3175 2569 3231 2231 
Q 3281 2000 3281 1494 
L 828 1494 
Q 844 984 1069 676 
Q 1294 369 1766 369 
Q 2206 369 2469 659 
Q 2619 828 2681 1050 
L 3234 1050 
Q 3213 866 3089 639 
Q 2966 413 2813 269 
Q 2556 19 2178 -69 
Q 1975 -119 1719 -119 
Q 1094 -119 659 336 
Q 225 791 225 1609 
Q 225 2416 662 2919 
Q 1100 3422 1806 3422 
z
M 2703 1941 
Q 2669 2306 2544 2525 
Q 2313 2931 1772 2931 
Q 1384 2931 1121 2651 
Q 859 2372 844 1941 
L 2703 1941 
z
M 1753 3428 
L 1753 3428 
z
" transform="scale(0.015625)"/>
       <path id="Helvetica-20" transform="scale(0.015625)"/>
       <path id="Helvetica-28" d="M 1894 4666 
Q 1403 3713 1256 3263 
Q 1034 2578 1034 1681 
Q 1034 775 1288 25 
Q 1444 -438 1903 -1306 
L 1525 -1306 
Q 1069 -594 959 -397 
Q 850 -200 722 138 
Q 547 600 478 1125 
Q 444 1397 444 1644 
Q 444 2569 734 3291 
Q 919 3750 1503 4666 
L 1894 4666 
z
" transform="scale(0.015625)"/>
       <path id="Helvetica-73" d="M 747 1050 
Q 772 769 888 619 
Q 1100 347 1625 347 
Q 1938 347 2175 483 
Q 2413 619 2413 903 
Q 2413 1119 2222 1231 
Q 2100 1300 1741 1391 
L 1294 1503 
Q 866 1609 663 1741 
Q 300 1969 300 2372 
Q 300 2847 642 3140 
Q 984 3434 1563 3434 
Q 2319 3434 2653 2991 
Q 2863 2709 2856 2384 
L 2325 2384 
Q 2309 2575 2191 2731 
Q 1997 2953 1519 2953 
Q 1200 2953 1036 2831 
Q 872 2709 872 2509 
Q 872 2291 1088 2159 
Q 1213 2081 1456 2022 
L 1828 1931 
Q 2434 1784 2641 1647 
Q 2969 1431 2969 969 
Q 2969 522 2630 197 
Q 2291 -128 1597 -128 
Q 850 -128 539 211 
Q 228 550 206 1050 
L 747 1050 
z
M 1578 3428 
L 1578 3428 
z
" transform="scale(0.015625)"/>
       <path id="Helvetica-29" d="M 222 -1306 
Q 719 -338 863 106 
Q 1081 778 1081 1681 
Q 1081 2584 828 3334 
Q 672 3797 213 4666 
L 591 4666 
Q 1072 3897 1173 3717 
Q 1275 3538 1394 3222 
Q 1544 2831 1608 2450 
Q 1672 2069 1672 1716 
Q 1672 791 1378 66 
Q 1194 -400 613 -1306 
L 222 -1306 
z
" transform="scale(0.015625)"/>
      </defs>
      <use xlink:href="#Helvetica-54"/>
      <use xlink:href="#Helvetica-69" transform="translate(61.083984 0)"/>
      <use xlink:href="#Helvetica-6d" transform="translate(83.300781 0)"/>
      <use xlink:href="#Helvetica-65" transform="translate(166.601562 0)"/>
      <use xlink:href="#Helvetica-20" transform="translate(222.216797 0)"/>
      <use xlink:href="#Helvetica-28" transform="translate(250 0)"/>
      <use xlink:href="#Helvetica-73" transform="translate(283.300781 0)"/>
      <use xlink:href="#Helvetica-29" transform="translate(333.300781 0)"/>
     </g>
    </g>
   </g>
   <g id="matplotlib.axis_2">
    <g id="ytick_1">
     <g id="line2d_8">
      <path d="M 50.833125 271.8 
L 497.233125 271.8 
" clip-path="url(#p67e05bb9b5)" style="fill: none; stroke: #b0b0b0; stroke-width: 0.8; stroke-linecap: square"/>
     </g>
     <g id="line2d_9">
      <defs>
       <path id="mb3952aa049" d="M 0 0 
L -3.5 0 
" style="stroke: #000000; stroke-width: 0.8"/>
      </defs>
      <g>
       <use xlink:href="#mb3952aa049" x="50.833125" y="271.8" style="stroke: #000000; stroke-width: 0.8"/>
      </g>
     </g>
     <g id="text_8">
      <!-- 0.4 -->
      <g transform="translate(24.373125 276.821406) scale(0.14 -0.14)">
       <defs>
        <path id="Helvetica-2e" d="M 547 681 
L 1200 681 
L 1200 0 
L 547 0 
L 547 681 
z
" transform="scale(0.015625)"/>
       </defs>
       <use xlink:href="#Helvetica-30"/>
       <use xlink:href="#Helvetica-2e" transform="translate(55.615234 0)"/>
       <use xlink:href="#Helvetica-34" transform="translate(83.398438 0)"/>
      </g>
     </g>
    </g>
    <g id="ytick_2">
     <g id="line2d_10">
      <path d="M 50.833125 229.8 
L 497.233125 229.8 
" clip-path="url(#p67e05bb9b5)" style="fill: none; stroke: #b0b0b0; stroke-width: 0.8; stroke-linecap: square"/>
     </g>
     <g id="line2d_11">
      <g>
       <use xlink:href="#mb3952aa049" x="50.833125" y="229.8" style="stroke: #000000; stroke-width: 0.8"/>
      </g>
     </g>
     <g id="text_9">
      <!-- 0.5 -->
      <g transform="translate(24.373125 234.821406) scale(0.14 -0.14)">
       <defs>
        <path id="Helvetica-35" d="M 791 1141 
Q 847 659 1238 475 
Q 1438 381 1700 381 
Q 2200 381 2440 700 
Q 2681 1019 2681 1406 
Q 2681 1875 2395 2131 
Q 2109 2388 1709 2388 
Q 1419 2388 1211 2275 
Q 1003 2163 856 1963 
L 369 1991 
L 709 4400 
L 3034 4400 
L 3034 3856 
L 1131 3856 
L 941 2613 
Q 1097 2731 1238 2791 
Q 1488 2894 1816 2894 
Q 2431 2894 2859 2497 
Q 3288 2100 3288 1491 
Q 3288 856 2895 371 
Q 2503 -113 1644 -113 
Q 1097 -113 676 195 
Q 256 503 206 1141 
L 791 1141 
z
" transform="scale(0.015625)"/>
       </defs>
       <use xlink:href="#Helvetica-30"/>
       <use xlink:href="#Helvetica-2e" transform="translate(55.615234 0)"/>
       <use xlink:href="#Helvetica-35" transform="translate(83.398438 0)"/>
      </g>
     </g>
    </g>
    <g id="ytick_3">
     <g id="line2d_12">
      <path d="M 50.833125 187.8 
L 497.233125 187.8 
" clip-path="url(#p67e05bb9b5)" style="fill: none; stroke: #b0b0b0; stroke-width: 0.8; stroke-linecap: square"/>
     </g>
     <g id="line2d_13">
      <g>
       <use xlink:href="#mb3952aa049" x="50.833125" y="187.8" style="stroke: #000000; stroke-width: 0.8"/>
      </g>
     </g>
     <g id="text_10">
      <!-- 0.6 -->
      <g transform="translate(24.373125 192.821406) scale(0.14 -0.14)">
       <use xlink:href="#Helvetica-30"/>
       <use xlink:href="#Helvetica-2e" transform="translate(55.615234 0)"/>
       <use xlink:href="#Helvetica-36" transform="translate(83.398438 0)"/>
      </g>
     </g>
    </g>
    <g id="ytick_4">
     <g id="line2d_14">
      <path d="M 50.833125 145.8 
L 497.233125 145.8 
" clip-path="url(#p67e05bb9b5)" style="fill: none; stroke: #b0b0b0; stroke-width: 0.8; stroke-linecap: square"/>
     </g>
     <g id="line2d_15">
      <g>
       <use xlink:href="#mb3952aa049" x="50.833125" y="145.8" style="stroke: #000000; stroke-width: 0.8"/>
      </g>
     </g>
     <g id="text_11">
      <!-- 0.7 -->
      <g transform="translate(24.373125 150.821406) scale(0.14 -0.14)">
       <defs>
        <path id="Helvetica-37" d="M 3347 4400 
L 3347 3909 
Q 3131 3700 2773 3181 
Q 2416 2663 2141 2063 
Q 1869 1478 1728 997 
Q 1638 688 1494 0 
L 872 0 
Q 1084 1281 1809 2550 
Q 2238 3294 2709 3834 
L 234 3834 
L 234 4400 
L 3347 4400 
z
" transform="scale(0.015625)"/>
       </defs>
       <use xlink:href="#Helvetica-30"/>
       <use xlink:href="#Helvetica-2e" transform="translate(55.615234 0)"/>
       <use xlink:href="#Helvetica-37" transform="translate(83.398438 0)"/>
      </g>
     </g>
    </g>
    <g id="ytick_5">
     <g id="line2d_16">
      <path d="M 50.833125 103.8 
L 497.233125 103.8 
" clip-path="url(#p67e05bb9b5)" style="fill: none; stroke: #b0b0b0; stroke-width: 0.8; stroke-linecap: square"/>
     </g>
     <g id="line2d_17">
      <g>
       <use xlink:href="#mb3952aa049" x="50.833125" y="103.8" style="stroke: #000000; stroke-width: 0.8"/>
      </g>
     </g>
     <g id="text_12">
      <!-- 0.8 -->
      <g transform="translate(24.373125 108.821406) scale(0.14 -0.14)">
       <use xlink:href="#Helvetica-30"/>
       <use xlink:href="#Helvetica-2e" transform="translate(55.615234 0)"/>
       <use xlink:href="#Helvetica-38" transform="translate(83.398438 0)"/>
      </g>
     </g>
    </g>
    <g id="ytick_6">
     <g id="line2d_18">
      <path d="M 50.833125 61.8 
L 497.233125 61.8 
" clip-path="url(#p67e05bb9b5)" style="fill: none; stroke: #b0b0b0; stroke-width: 0.8; stroke-linecap: square"/>
     </g>
     <g id="line2d_19">
      <g>
       <use xlink:href="#mb3952aa049" x="50.833125" y="61.8" style="stroke: #000000; stroke-width: 0.8"/>
      </g>
     </g>
     <g id="text_13">
      <!-- 0.9 -->
      <g transform="translate(24.373125 66.821406) scale(0.14 -0.14)">
       <defs>
        <path id="Helvetica-39" d="M 850 1081 
Q 875 616 1209 438 
Q 1381 344 1597 344 
Q 2000 344 2284 680 
Q 2569 1016 2688 2044 
Q 2500 1747 2223 1626 
Q 1947 1506 1628 1506 
Q 981 1506 604 1909 
Q 228 2313 228 2947 
Q 228 3556 600 4018 
Q 972 4481 1697 4481 
Q 2675 4481 3047 3600 
Q 3253 3116 3253 2388 
Q 3253 1566 3006 931 
Q 2597 -125 1619 -125 
Q 963 -125 622 219 
Q 281 563 281 1081 
L 850 1081 
z
M 1703 2000 
Q 2038 2000 2314 2220 
Q 2591 2441 2591 2991 
Q 2591 3484 2342 3726 
Q 2094 3969 1709 3969 
Q 1297 3969 1055 3692 
Q 813 3416 813 2953 
Q 813 2516 1025 2258 
Q 1238 2000 1703 2000 
z
" transform="scale(0.015625)"/>
       </defs>
       <use xlink:href="#Helvetica-30"/>
       <use xlink:href="#Helvetica-2e" transform="translate(55.615234 0)"/>
       <use xlink:href="#Helvetica-39" transform="translate(83.398438 0)"/>
      </g>
     </g>
    </g>
    <g id="ytick_7">
     <g id="line2d_20">
      <path d="M 50.833125 19.8 
L 497.233125 19.8 
" clip-path="url(#p67e05bb9b5)" style="fill: none; stroke: #b0b0b0; stroke-width: 0.8; stroke-linecap: square"/>
     </g>
     <g id="line2d_21">
      <g>
       <use xlink:href="#mb3952aa049" x="50.833125" y="19.8" style="stroke: #000000; stroke-width: 0.8"/>
      </g>
     </g>
     <g id="text_14">
      <!-- 1.0 -->
      <g transform="translate(24.373125 24.821406) scale(0.14 -0.14)">
       <use xlink:href="#Helvetica-31"/>
       <use xlink:href="#Helvetica-2e" transform="translate(55.615234 0)"/>
       <use xlink:href="#Helvetica-30" transform="translate(83.398438 0)"/>
      </g>
     </g>
    </g>
    <g id="text_15">
     <!-- Decoding accuracy -->
     <g transform="translate(17.275625 205.327344) rotate(-90) scale(0.14 -0.14)">
      <defs>
       <path id="Helvetica-44" d="M 2250 531 
Q 2566 531 2769 597 
Q 3131 719 3363 1066 
Q 3547 1344 3628 1778 
Q 3675 2038 3675 2259 
Q 3675 3113 3336 3584 
Q 2997 4056 2244 4056 
L 1141 4056 
L 1141 531 
L 2250 531 
z
M 516 4591 
L 2375 4591 
Q 3322 4591 3844 3919 
Q 4309 3313 4309 2366 
Q 4309 1634 4034 1044 
Q 3550 0 2369 0 
L 516 0 
L 516 4591 
z
" transform="scale(0.015625)"/>
       <path id="Helvetica-63" d="M 1703 3444 
Q 2269 3444 2623 3169 
Q 2978 2894 3050 2222 
L 2503 2222 
Q 2453 2531 2275 2736 
Q 2097 2941 1703 2941 
Q 1166 2941 934 2416 
Q 784 2075 784 1575 
Q 784 1072 996 728 
Q 1209 384 1666 384 
Q 2016 384 2220 598 
Q 2425 813 2503 1184 
L 3050 1184 
Q 2956 519 2581 211 
Q 2206 -97 1622 -97 
Q 966 -97 575 383 
Q 184 863 184 1581 
Q 184 2463 612 2953 
Q 1041 3444 1703 3444 
z
M 1616 3428 
L 1616 3428 
z
" transform="scale(0.015625)"/>
       <path id="Helvetica-6f" d="M 1741 363 
Q 2300 363 2508 786 
Q 2716 1209 2716 1728 
Q 2716 2197 2566 2491 
Q 2328 2953 1747 2953 
Q 1231 2953 997 2559 
Q 763 2166 763 1609 
Q 763 1075 997 719 
Q 1231 363 1741 363 
z
M 1763 3444 
Q 2409 3444 2856 3012 
Q 3303 2581 3303 1744 
Q 3303 934 2909 406 
Q 2516 -122 1688 -122 
Q 997 -122 590 345 
Q 184 813 184 1600 
Q 184 2444 612 2944 
Q 1041 3444 1763 3444 
z
M 1744 3428 
L 1744 3428 
z
" transform="scale(0.015625)"/>
       <path id="Helvetica-64" d="M 769 1634 
Q 769 1097 997 734 
Q 1225 372 1728 372 
Q 2119 372 2370 708 
Q 2622 1044 2622 1672 
Q 2622 2306 2362 2611 
Q 2103 2916 1722 2916 
Q 1297 2916 1033 2591 
Q 769 2266 769 1634 
z
M 1616 3406 
Q 2000 3406 2259 3244 
Q 2409 3150 2600 2916 
L 2600 4606 
L 3141 4606 
L 3141 0 
L 2634 0 
L 2634 466 
Q 2438 156 2169 18 
Q 1900 -119 1553 -119 
Q 994 -119 584 351 
Q 175 822 175 1603 
Q 175 2334 548 2870 
Q 922 3406 1616 3406 
z
" transform="scale(0.015625)"/>
       <path id="Helvetica-6e" d="M 413 3347 
L 947 3347 
L 947 2872 
Q 1184 3166 1450 3294 
Q 1716 3422 2041 3422 
Q 2753 3422 3003 2925 
Q 3141 2653 3141 2147 
L 3141 0 
L 2569 0 
L 2569 2109 
Q 2569 2416 2478 2603 
Q 2328 2916 1934 2916 
Q 1734 2916 1606 2875 
Q 1375 2806 1200 2600 
Q 1059 2434 1017 2257 
Q 975 2081 975 1753 
L 975 0 
L 413 0 
L 413 3347 
z
M 1734 3428 
L 1734 3428 
z
" transform="scale(0.015625)"/>
       <path id="Helvetica-67" d="M 1594 3406 
Q 1988 3406 2281 3213 
Q 2441 3103 2606 2894 
L 2606 3316 
L 3125 3316 
L 3125 272 
Q 3125 -366 2938 -734 
Q 2588 -1416 1616 -1416 
Q 1075 -1416 706 -1173 
Q 338 -931 294 -416 
L 866 -416 
Q 906 -641 1028 -763 
Q 1219 -950 1628 -950 
Q 2275 -950 2475 -494 
Q 2594 -225 2584 466 
Q 2416 209 2178 84 
Q 1941 -41 1550 -41 
Q 1006 -41 598 345 
Q 191 731 191 1622 
Q 191 2463 602 2934 
Q 1013 3406 1594 3406 
z
M 2606 1688 
Q 2606 2309 2350 2609 
Q 2094 2909 1697 2909 
Q 1103 2909 884 2353 
Q 769 2056 769 1575 
Q 769 1009 998 714 
Q 1228 419 1616 419 
Q 2222 419 2469 966 
Q 2606 1275 2606 1688 
z
M 1659 3428 
L 1659 3428 
z
" transform="scale(0.015625)"/>
       <path id="Helvetica-61" d="M 844 891 
Q 844 647 1022 506 
Q 1200 366 1444 366 
Q 1741 366 2019 503 
Q 2488 731 2488 1250 
L 2488 1703 
Q 2384 1638 2221 1594 
Q 2059 1550 1903 1531 
L 1563 1488 
Q 1256 1447 1103 1359 
Q 844 1213 844 891 
z
M 2206 2028 
Q 2400 2053 2466 2191 
Q 2503 2266 2503 2406 
Q 2503 2694 2298 2823 
Q 2094 2953 1713 2953 
Q 1272 2953 1088 2716 
Q 984 2584 953 2325 
L 428 2325 
Q 444 2944 830 3186 
Q 1216 3428 1725 3428 
Q 2316 3428 2684 3203 
Q 3050 2978 3050 2503 
L 3050 575 
Q 3050 488 3086 434 
Q 3122 381 3238 381 
Q 3275 381 3322 386 
Q 3369 391 3422 400 
L 3422 -16 
Q 3291 -53 3222 -62 
Q 3153 -72 3034 -72 
Q 2744 -72 2613 134 
Q 2544 244 2516 444 
Q 2344 219 2022 53 
Q 1700 -113 1313 -113 
Q 847 -113 551 170 
Q 256 453 256 878 
Q 256 1344 547 1600 
Q 838 1856 1309 1916 
L 2206 2028 
z
M 1741 3428 
L 1741 3428 
z
" transform="scale(0.015625)"/>
       <path id="Helvetica-75" d="M 975 3347 
L 975 1125 
Q 975 869 1056 706 
Q 1206 406 1616 406 
Q 2203 406 2416 931 
Q 2531 1213 2531 1703 
L 2531 3347 
L 3094 3347 
L 3094 0 
L 2563 0 
L 2569 494 
Q 2459 303 2297 172 
Q 1975 -91 1516 -91 
Q 800 -91 541 388 
Q 400 644 400 1072 
L 400 3347 
L 975 3347 
z
M 1747 3428 
L 1747 3428 
z
" transform="scale(0.015625)"/>
       <path id="Helvetica-72" d="M 428 3347 
L 963 3347 
L 963 2769 
Q 1028 2938 1284 3180 
Q 1541 3422 1875 3422 
Q 1891 3422 1928 3419 
Q 1966 3416 2056 3406 
L 2056 2813 
Q 2006 2822 1964 2825 
Q 1922 2828 1872 2828 
Q 1447 2828 1219 2554 
Q 991 2281 991 1925 
L 991 0 
L 428 0 
L 428 3347 
z
" transform="scale(0.015625)"/>
       <path id="Helvetica-79" d="M 2503 3347 
L 3125 3347 
Q 3006 3025 2597 1878 
Q 2291 1016 2084 472 
Q 1597 -809 1397 -1090 
Q 1197 -1372 709 -1372 
Q 591 -1372 527 -1362 
Q 463 -1353 369 -1328 
L 369 -816 
Q 516 -856 581 -865 
Q 647 -875 697 -875 
Q 853 -875 926 -823 
Q 1000 -772 1050 -697 
Q 1066 -672 1162 -440 
Q 1259 -209 1303 -97 
L 66 3347 
L 703 3347 
L 1600 622 
L 2503 3347 
z
M 1597 3428 
L 1597 3428 
z
" transform="scale(0.015625)"/>
      </defs>
      <use xlink:href="#Helvetica-44"/>
      <use xlink:href="#Helvetica-65" transform="translate(72.216797 0)"/>
      <use xlink:href="#Helvetica-63" transform="translate(127.832031 0)"/>
      <use xlink:href="#Helvetica-6f" transform="translate(177.832031 0)"/>
      <use xlink:href="#Helvetica-64" transform="translate(233.447266 0)"/>
      <use xlink:href="#Helvetica-69" transform="translate(289.0625 0)"/>
      <use xlink:href="#Helvetica-6e" transform="translate(311.279297 0)"/>
      <use xlink:href="#Helvetica-67" transform="translate(366.894531 0)"/>
      <use xlink:href="#Helvetica-20" transform="translate(422.509766 0)"/>
      <use xlink:href="#Helvetica-61" transform="translate(450.292969 0)"/>
      <use xlink:href="#Helvetica-63" transform="translate(505.908203 0)"/>
      <use xlink:href="#Helvetica-63" transform="translate(555.908203 0)"/>
      <use xlink:href="#Helvetica-75" transform="translate(605.908203 0)"/>
      <use xlink:href="#Helvetica-72" transform="translate(661.523438 0)"/>
      <use xlink:href="#Helvetica-61" transform="translate(694.824219 0)"/>
      <use xlink:href="#Helvetica-63" transform="translate(750.439453 0)"/>
      <use xlink:href="#Helvetica-79" transform="translate(800.439453 0)"/>
     </g>
    </g>
   </g>
   <g id="line2d_22">
    <path clip-path="url(#p67e05bb9b5)" style="fill: none; stroke: #000000; stroke-linecap: square"/>
   </g>
   <g id="line2d_23">
    <path d="M 50.833125 284.4 
L 50.833125 19.8 
" clip-path="url(#p67e05bb9b5)" style="fill: none; stroke: #000000; stroke-linecap: square"/>
   </g>
   <g id="text_16">
    <!-- + Drug -->
    <g style="opacity: 0.5" transform="translate(147.553125 128.272656) scale(0.14 -0.14)">
     <defs>
      <path id="Helvetica-2b" d="M 288 1369 
L 288 1894 
L 1650 1894 
L 1650 3266 
L 2184 3266 
L 2184 1894 
L 3547 1894 
L 3547 1369 
L 2184 1369 
L 2184 0 
L 1650 0 
L 1650 1369 
L 288 1369 
z
" transform="scale(0.015625)"/>
     </defs>
     <use xlink:href="#Helvetica-2b"/>
     <use xlink:href="#Helvetica-20" transform="translate(58.398438 0)"/>
     <use xlink:href="#Helvetica-44" transform="translate(86.181641 0)"/>
     <use xlink:href="#Helvetica-72" transform="translate(158.398438 0)"/>
     <use xlink:href="#Helvetica-75" transform="translate(191.699219 0)"/>
     <use xlink:href="#Helvetica-67" transform="translate(247.314453 0)"/>
    </g>
   </g>
   <g id="legend_1">
    <g id="patch_3">
     <path d="M 59.233125 102.346875 
L 149.655 102.346875 
Q 152.055 102.346875 152.055 99.946875 
L 152.055 15.6 
Q 152.055 13.2 149.655 13.2 
L 59.233125 13.2 
Q 56.833125 13.2 56.833125 15.6 
L 56.833125 99.946875 
Q 56.833125 102.346875 59.233125 102.346875 
z
" style="fill: #f9f4f5; opacity: 0.8; stroke: #cccccc; stroke-linejoin: miter"/>
    </g>
    <g id="line2d_24">
     <path d="M 61.633125 22.408125 
L 73.633125 22.408125 
L 85.633125 22.408125 
" style="fill: none; stroke: #00a6db; stroke-width: 1.5; stroke-linecap: square"/>
    </g>
    <g id="text_17">
     <!-- 4 PCs -->
     <g transform="translate(95.233125 26.608125) scale(0.12 -0.12)">
      <defs>
       <path id="Helvetica-50" d="M 547 4591 
L 2613 4591 
Q 3225 4591 3600 4245 
Q 3975 3900 3975 3275 
Q 3975 2738 3640 2339 
Q 3306 1941 2613 1941 
L 1169 1941 
L 1169 0 
L 547 0 
L 547 4591 
z
M 3347 3272 
Q 3347 3778 2972 3959 
Q 2766 4056 2406 4056 
L 1169 4056 
L 1169 2466 
L 2406 2466 
Q 2825 2466 3086 2644 
Q 3347 2822 3347 3272 
z
" transform="scale(0.015625)"/>
       <path id="Helvetica-43" d="M 2422 4716 
Q 3294 4716 3775 4256 
Q 4256 3797 4309 3213 
L 3703 3213 
Q 3600 3656 3292 3915 
Q 2984 4175 2428 4175 
Q 1750 4175 1333 3698 
Q 916 3222 916 2238 
Q 916 1431 1292 929 
Q 1669 428 2416 428 
Q 3103 428 3463 956 
Q 3653 1234 3747 1688 
L 4353 1688 
Q 4272 963 3816 472 
Q 3269 -119 2341 -119 
Q 1541 -119 997 366 
Q 281 1006 281 2344 
Q 281 3359 819 4009 
Q 1400 4716 2422 4716 
z
M 2297 4716 
L 2297 4716 
z
" transform="scale(0.015625)"/>
      </defs>
      <use xlink:href="#Helvetica-34"/>
      <use xlink:href="#Helvetica-20" transform="translate(55.615234 0)"/>
      <use xlink:href="#Helvetica-50" transform="translate(83.398438 0)"/>
      <use xlink:href="#Helvetica-43" transform="translate(150.097656 0)"/>
      <use xlink:href="#Helvetica-73" transform="translate(222.314453 0)"/>
     </g>
    </g>
    <g id="line2d_25">
     <path d="M 61.633125 39.5175 
L 73.633125 39.5175 
L 85.633125 39.5175 
" style="fill: none; stroke: #ffce02; stroke-width: 1.5; stroke-linecap: square"/>
    </g>
    <g id="text_18">
     <!-- 8 PCs -->
     <g transform="translate(95.233125 43.7175) scale(0.12 -0.12)">
      <use xlink:href="#Helvetica-38"/>
      <use xlink:href="#Helvetica-20" transform="translate(55.615234 0)"/>
      <use xlink:href="#Helvetica-50" transform="translate(83.398438 0)"/>
      <use xlink:href="#Helvetica-43" transform="translate(150.097656 0)"/>
      <use xlink:href="#Helvetica-73" transform="translate(222.314453 0)"/>
     </g>
    </g>
    <g id="line2d_26">
     <path d="M 61.633125 56.626875 
L 73.633125 56.626875 
L 85.633125 56.626875 
" style="fill: none; stroke: #007c35; stroke-width: 1.5; stroke-linecap: square"/>
    </g>
    <g id="text_19">
     <!-- 12 PCs -->
     <g transform="translate(95.233125 60.826875) scale(0.12 -0.12)">
      <use xlink:href="#Helvetica-31"/>
      <use xlink:href="#Helvetica-32" transform="translate(55.615234 0)"/>
      <use xlink:href="#Helvetica-20" transform="translate(111.230469 0)"/>
      <use xlink:href="#Helvetica-50" transform="translate(139.013672 0)"/>
      <use xlink:href="#Helvetica-43" transform="translate(205.712891 0)"/>
      <use xlink:href="#Helvetica-73" transform="translate(277.929688 0)"/>
     </g>
    </g>
    <g id="line2d_27">
     <path d="M 61.633125 73.73625 
L 73.633125 73.73625 
L 85.633125 73.73625 
" style="fill: none; stroke: #f95838; stroke-width: 1.5; stroke-linecap: square"/>
    </g>
    <g id="text_20">
     <!-- 16 PCs -->
     <g transform="translate(95.233125 77.93625) scale(0.12 -0.12)">
      <use xlink:href="#Helvetica-31"/>
      <use xlink:href="#Helvetica-36" transform="translate(55.615234 0)"/>
      <use xlink:href="#Helvetica-20" transform="translate(111.230469 0)"/>
      <use xlink:href="#Helvetica-50" transform="translate(139.013672 0)"/>
      <use xlink:href="#Helvetica-43" transform="translate(205.712891 0)"/>
      <use xlink:href="#Helvetica-73" transform="translate(277.929688 0)"/>
     </g>
    </g>
    <g id="line2d_28">
     <path d="M 61.633125 90.845625 
L 73.633125 90.845625 
L 85.633125 90.845625 
" style="fill: none; stroke: #000000; stroke-width: 1.5; stroke-linecap: square"/>
    </g>
    <g id="text_21">
     <!-- Permuted -->
     <g transform="translate(95.233125 95.045625) scale(0.12 -0.12)">
      <defs>
       <path id="Helvetica-74" d="M 525 4281 
L 1094 4281 
L 1094 3347 
L 1628 3347 
L 1628 2888 
L 1094 2888 
L 1094 703 
Q 1094 528 1213 469 
Q 1278 434 1431 434 
Q 1472 434 1519 436 
Q 1566 438 1628 444 
L 1628 0 
Q 1531 -28 1426 -40 
Q 1322 -53 1200 -53 
Q 806 -53 665 148 
Q 525 350 525 672 
L 525 2888 
L 72 2888 
L 72 3347 
L 525 3347 
L 525 4281 
z
" transform="scale(0.015625)"/>
      </defs>
      <use xlink:href="#Helvetica-50"/>
      <use xlink:href="#Helvetica-65" transform="translate(66.699219 0)"/>
      <use xlink:href="#Helvetica-72" transform="translate(122.314453 0)"/>
      <use xlink:href="#Helvetica-6d" transform="translate(155.615234 0)"/>
      <use xlink:href="#Helvetica-75" transform="translate(238.916016 0)"/>
      <use xlink:href="#Helvetica-74" transform="translate(294.53125 0)"/>
      <use xlink:href="#Helvetica-65" transform="translate(322.314453 0)"/>
      <use xlink:href="#Helvetica-64" transform="translate(377.929688 0)"/>
     </g>
    </g>
   </g>
   <g id="FillBetweenPolyCollection_2">
    <defs>
     <path id="mda95a68c70" d="M 51.247386 -100.833412 
L 51.247386 -93.780559 
L 66.127386 -95.16464 
L 81.007386 -94.896282 
L 95.887386 -92.932748 
L 110.767386 -94.672892 
L 125.647386 -95.498944 
L 140.527386 -93.847844 
L 155.407386 -94.807573 
L 170.287386 -93.535633 
L 185.167386 -96.547716 
L 200.047386 -92.865686 
L 214.927386 -93.400952 
L 229.807386 -93.735702 
L 244.687386 -93.959539 
L 259.567386 -95.030182 
L 274.447386 -93.601133 
L 289.327386 -93.088742 
L 304.207386 -92.263471 
L 319.087386 -92.307992 
L 333.967386 -95.61075 
L 348.847386 -92.598221 
L 363.727386 -94.405761 
L 378.607386 -93.959204 
L 393.487386 -94.316383 
L 408.367386 -92.307992 
L 423.247386 -94.338476 
L 438.127386 -94.807461 
L 453.007386 -95.387807 
L 467.887386 -95.990469 
L 482.767386 -91.058147 
L 482.767386 -99.248816 
L 482.767386 -99.248816 
L 467.887386 -101.234889 
L 453.007386 -102.440102 
L 438.127386 -103.645091 
L 423.247386 -101.235224 
L 408.367386 -100.810984 
L 393.487386 -99.405814 
L 378.607386 -100.142265 
L 363.727386 -102.373598 
L 348.847386 -99.071064 
L 333.967386 -101.570086 
L 319.087386 -99.204294 
L 304.207386 -100.878269 
L 289.327386 -101.191707 
L 274.447386 -101.16872 
L 259.567386 -101.770601 
L 244.687386 -100.833859 
L 229.807386 -102.061053 
L 214.927386 -100.498439 
L 200.047386 -101.012504 
L 185.167386 -105.341271 
L 170.287386 -100.453805 
L 155.407386 -101.792918 
L 140.527386 -99.740006 
L 125.647386 -101.636924 
L 110.767386 -101.324379 
L 95.887386 -103.065973 
L 81.007386 -101.279634 
L 66.127386 -106.144783 
L 51.247386 -100.833412 
z
" style="stroke: #000000; stroke-opacity: 0.2"/>
    </defs>
    <g clip-path="url(#p67e05bb9b5)">
     <use xlink:href="#mda95a68c70" x="0" y="328.624687" style="fill-opacity: 0.2; stroke: #000000; stroke-opacity: 0.2"/>
    </g>
   </g>
   <g id="FillBetweenPolyCollection_3">
    <path d="M 51.247386 214.91466 
L 51.247386 220.986137 
L 66.127386 227.07848 
L 81.007386 228.349639 
L 95.887386 223.574426 
L 110.767386 224.154325 
L 125.647386 228.773433 
L 140.527386 230.336382 
L 155.407386 224.17653 
L 170.287386 218.062763 
L 185.167386 198.668783 
L 200.047386 174.276759 
L 214.927386 152.875058 
L 229.807386 120.738698 
L 244.687386 88.893236 
L 259.567386 75.525096 
L 274.447386 72.64602 
L 289.327386 70.30288 
L 304.207386 68.383422 
L 319.087386 69.722423 
L 333.967386 77.578231 
L 348.847386 82.064219 
L 363.727386 81.863369 
L 378.607386 87.666599 
L 393.487386 94.048278 
L 408.367386 86.482588 
L 423.247386 87.732545 
L 438.127386 88.580468 
L 453.007386 92.552949 
L 467.887386 93.155276 
L 482.767386 98.355287 
L 482.767386 92.596913 
L 482.767386 92.596913 
L 467.887386 88.691158 
L 453.007386 85.835069 
L 438.127386 84.964718 
L 423.247386 82.375648 
L 408.367386 81.393937 
L 393.487386 88.111036 
L 378.607386 82.487009 
L 363.727386 77.064612 
L 348.847386 77.019309 
L 333.967386 72.288618 
L 319.087386 64.053427 
L 304.207386 64.566934 
L 289.327386 65.995202 
L 274.447386 67.267476 
L 259.567386 71.440696 
L 244.687386 83.580972 
L 229.807386 115.002529 
L 214.927386 147.562906 
L 200.047386 169.432811 
L 185.167386 192.41933 
L 170.287386 212.325925 
L 155.407386 217.05695 
L 140.527386 225.76068 
L 125.647386 221.810627 
L 110.767386 217.503172 
L 95.887386 216.253215 
L 81.007386 222.390861 
L 66.127386 219.734841 
L 51.247386 214.91466 
z
" clip-path="url(#p67e05bb9b5)" style="fill: #f95838; fill-opacity: 0.2"/>
   </g>
   <g id="line2d_29">
    <path d="M 51.247386 217.838257 
L 66.127386 223.372795 
L 81.007386 225.336663 
L 95.887386 219.735175 
L 110.767386 220.91796 
L 125.647386 224.912646 
L 140.527386 228.170882 
L 155.407386 220.270776 
L 170.287386 215.182572 
L 185.167386 195.343039 
L 200.047386 171.888204 
L 214.927386 150.419554 
L 229.807386 117.680978 
L 244.687386 86.236769 
L 259.567386 73.627843 
L 274.447386 69.499256 
L 289.327386 68.115622 
L 304.207386 66.37492 
L 319.087386 66.709671 
L 333.967386 74.899894 
L 348.847386 79.497131 
L 363.727386 79.452497 
L 378.607386 85.031668 
L 393.487386 91.28034 
L 408.367386 83.938151 
L 423.247386 85.076302 
L 438.127386 86.70542 
L 453.007386 89.115622 
L 467.887386 91.034857 
L 482.767386 95.341977 
" clip-path="url(#p67e05bb9b5)" style="fill: none; stroke: #f95838; stroke-width: 1.5; stroke-linecap: square"/>
   </g>
   <g id="FillBetweenPolyCollection_4">
    <path d="M 51.247386 220.091908 
L 51.247386 227.546573 
L 66.127386 231.652508 
L 81.007386 234.93373 
L 95.887386 236.272285 
L 110.767386 230.537009 
L 125.647386 229.978533 
L 140.527386 234.151865 
L 155.407386 225.693842 
L 170.287386 218.061759 
L 185.167386 210.42923 
L 200.047386 189.473863 
L 214.927386 165.05941 
L 229.807386 128.482922 
L 244.687386 98.288114 
L 259.567386 88.156227 
L 274.447386 84.429341 
L 289.327386 82.442933 
L 304.207386 81.349639 
L 319.087386 87.665149 
L 333.967386 89.339346 
L 348.847386 97.663023 
L 363.727386 96.680978 
L 378.607386 106.277375 
L 393.487386 106.835292 
L 408.367386 105.072497 
L 423.247386 112.861132 
L 438.127386 109.000234 
L 453.007386 114.244989 
L 467.887386 119.756429 
L 482.767386 121.965893 
L 482.767386 116.498082 
L 482.767386 116.498082 
L 467.887386 114.065452 
L 453.007386 106.544506 
L 438.127386 103.219431 
L 423.247386 107.033241 
L 408.367386 100.251424 
L 393.487386 101.701674 
L 378.607386 98.823379 
L 363.727386 92.440584 
L 348.847386 92.864713 
L 333.967386 84.540143 
L 319.087386 81.661738 
L 304.207386 75.993411 
L 289.327386 78.247173 
L 274.447386 80.166296 
L 259.567386 81.974283 
L 244.687386 91.882109 
L 229.807386 123.684054 
L 214.927386 158.453114 
L 200.047386 183.916674 
L 185.167386 205.451828 
L 170.287386 213.04017 
L 155.407386 220.404453 
L 140.527386 225.804198 
L 125.647386 224.064501 
L 110.767386 224.934851 
L 95.887386 230.268539 
L 81.007386 227.076472 
L 66.127386 225.447131 
L 51.247386 220.091908 
z
" clip-path="url(#p67e05bb9b5)" style="fill: #007c35; fill-opacity: 0.2"/>
   </g>
   <g id="line2d_30">
    <path d="M 51.247386 223.484378 
L 66.127386 228.929649 
L 81.007386 230.938151 
L 95.887386 232.968969 
L 110.767386 227.769182 
L 125.647386 226.854198 
L 140.527386 229.956217 
L 155.407386 223.038045 
L 170.287386 215.807439 
L 185.167386 207.974283 
L 200.047386 186.572582 
L 214.927386 161.421679 
L 229.807386 126.295218 
L 244.687386 94.940276 
L 259.567386 84.942402 
L 274.447386 82.286716 
L 289.327386 80.278215 
L 304.207386 78.69373 
L 319.087386 84.674601 
L 333.967386 86.995537 
L 348.847386 95.208077 
L 363.727386 94.516259 
L 378.607386 102.527949 
L 393.487386 104.290967 
L 408.367386 102.438682 
L 423.247386 109.892455 
L 438.127386 106.388735 
L 453.007386 110.517322 
L 467.887386 116.966844 
L 482.767386 119.287779 
" clip-path="url(#p67e05bb9b5)" style="fill: none; stroke: #007c35; stroke-width: 1.5; stroke-linecap: square"/>
   </g>
   <g id="FillBetweenPolyCollection_5">
    <path d="M 51.247386 237.432306 
L 51.247386 242.766552 
L 66.127386 245.265909 
L 81.007386 244.106222 
L 95.887386 242.253268 
L 110.767386 242.364516 
L 125.647386 243.480351 
L 140.527386 251.380234 
L 155.407386 251.402885 
L 170.287386 250.645122 
L 185.167386 247.744065 
L 200.047386 237.901961 
L 214.927386 220.07093 
L 229.807386 199.271222 
L 244.687386 182.37805 
L 259.567386 170.795133 
L 274.447386 163.0961 
L 289.327386 160.038379 
L 304.207386 161.778858 
L 319.087386 169.09873 
L 333.967386 177.981105 
L 348.847386 180.904256 
L 363.727386 179.632317 
L 378.607386 185.234586 
L 393.487386 184.363454 
L 408.367386 185.523921 
L 423.247386 188.514134 
L 438.127386 194.829867 
L 453.007386 189.607651 
L 467.887386 190.455797 
L 482.767386 193.513518 
L 482.767386 186.794968 
L 482.767386 186.794968 
L 467.887386 182.465085 
L 453.007386 183.983512 
L 438.127386 186.192641 
L 423.247386 180.2111 
L 408.367386 180.680308 
L 393.487386 177.689872 
L 378.607386 179.073842 
L 363.727386 173.807216 
L 348.847386 172.980159 
L 333.967386 171.776509 
L 319.087386 162.939102 
L 304.207386 154.702349 
L 289.327386 153.8561 
L 274.447386 154.436557 
L 259.567386 164.166296 
L 244.687386 175.347179 
L 229.807386 193.378725 
L 214.927386 213.061929 
L 200.047386 233.035138 
L 185.167386 241.783836 
L 170.287386 242.475654 
L 155.407386 243.166467 
L 140.527386 243.234086 
L 125.647386 235.602115 
L 110.767386 237.476939 
L 95.887386 236.494113 
L 81.007386 237.275866 
L 66.127386 237.029936 
L 51.247386 237.432306 
z
" clip-path="url(#p67e05bb9b5)" style="fill: #ffce02; fill-opacity: 0.2"/>
   </g>
   <g id="line2d_31">
    <path d="M 51.247386 239.976408 
L 66.127386 241.382359 
L 81.007386 240.556642 
L 95.887386 239.373858 
L 110.767386 239.887141 
L 125.647386 239.217641 
L 140.527386 247.073114 
L 155.407386 247.541764 
L 170.287386 246.35898 
L 185.167386 244.506695 
L 200.047386 235.379171 
L 214.927386 216.119872 
L 229.807386 196.235707 
L 244.687386 179.074176 
L 259.567386 167.692667 
L 274.447386 158.98916 
L 289.327386 157.114559 
L 304.207386 158.38661 
L 319.087386 166.375983 
L 333.967386 174.990223 
L 348.847386 176.530074 
L 363.727386 176.775558 
L 378.607386 182.086929 
L 393.487386 181.328162 
L 408.367386 183.02423 
L 423.247386 184.519447 
L 438.127386 190.455685 
L 453.007386 186.795749 
L 467.887386 186.594899 
L 482.767386 190.232519 
" clip-path="url(#p67e05bb9b5)" style="fill: none; stroke: #ffce02; stroke-width: 1.5; stroke-linecap: square"/>
   </g>
   <g id="FillBetweenPolyCollection_6">
    <path d="M 51.247386 238.101583 
L 51.247386 244.663023 
L 66.127386 245.243704 
L 81.007386 245.288225 
L 95.887386 244.596073 
L 110.767386 248.323071 
L 125.647386 244.93127 
L 140.527386 243.302598 
L 155.407386 244.77483 
L 170.287386 245.088826 
L 185.167386 240.802572 
L 200.047386 238.325197 
L 214.927386 229.443603 
L 229.807386 221.542827 
L 244.687386 211.29958 
L 259.567386 210.474309 
L 274.447386 206.858672 
L 289.327386 204.604687 
L 304.207386 206.390133 
L 319.087386 207.931993 
L 333.967386 210.384596 
L 348.847386 213.687465 
L 363.727386 213.509267 
L 378.607386 214.270043 
L 393.487386 215.139501 
L 408.367386 211.656647 
L 423.247386 215.762917 
L 438.127386 215.474028 
L 453.007386 216.968241 
L 467.887386 216.856658 
L 482.767386 220.472519 
L 482.767386 214.289793 
L 482.767386 214.289793 
L 467.887386 210.204054 
L 453.007386 211.477667 
L 438.127386 209.134527 
L 423.247386 209.224017 
L 408.367386 205.519336 
L 393.487386 207.773321 
L 378.607386 206.500154 
L 363.727386 207.661849 
L 348.847386 207.148342 
L 333.967386 205.853974 
L 319.087386 201.390414 
L 304.207386 200.297009 
L 289.327386 197.08229 
L 274.447386 200.051748 
L 259.567386 203.42101 
L 244.687386 204.201647 
L 229.807386 216.119315 
L 214.927386 224.488518 
L 200.047386 232.254501 
L 185.167386 237.409989 
L 170.287386 239.262051 
L 155.407386 237.231233 
L 140.527386 238.19085 
L 125.647386 237.877301 
L 110.767386 240.444947 
L 95.887386 239.529516 
L 81.007386 239.172896 
L 66.127386 239.619006 
L 51.247386 238.101583 
z
" clip-path="url(#p67e05bb9b5)" style="fill: #00a6db; fill-opacity: 0.2"/>
   </g>
   <g id="line2d_32">
    <path d="M 51.247386 241.226142 
L 66.127386 242.31966 
L 81.007386 242.029543 
L 95.887386 241.962593 
L 110.767386 243.837194 
L 125.647386 241.404676 
L 140.527386 240.735175 
L 155.407386 241.270776 
L 170.287386 242.141126 
L 185.167386 239.128374 
L 200.047386 235.289904 
L 214.927386 226.943464 
L 229.807386 218.887141 
L 244.687386 208.108183 
L 259.567386 206.992349 
L 274.447386 203.488629 
L 289.327386 200.85526 
L 304.207386 203.310096 
L 319.087386 204.649097 
L 333.967386 208.152816 
L 348.847386 210.540701 
L 363.727386 210.362168 
L 378.607386 210.429118 
L 393.487386 211.946652 
L 408.367386 208.59915 
L 423.247386 212.526886 
L 438.127386 212.415303 
L 453.007386 214.089054 
L 467.887386 213.17407 
L 482.767386 217.21339 
" clip-path="url(#p67e05bb9b5)" style="fill: none; stroke: #00a6db; stroke-width: 1.5; stroke-linecap: square"/>
   </g>
  </g>
 </g>
 <defs>
  <clipPath id="p67e05bb9b5">
   <rect x="50.833125" y="7.2" width="446.4" height="277.2"/>
  </clipPath>
 </defs>
</svg>
